{
  "accessors": [
    {
      "bufferView": 0,
      "componentType": 5126,
      "count": 92040,
      "max": [
        111.798698425293,
        23.6407299041748,
        77.2649002075195
      ],
      "min": [
        -111.805099487305,
        -23.6362400054932,
        -77.2627868652344
      ],
      "type": "VEC3"
    },
    {
      "bufferView": 1,
      "componentType": 5126,
      "count": 92040,
      "type": "VEC3"
    },
    {
      "bufferView": 2,
      "componentType": 5126,
      "count": 92040,
      "type": "VEC2"
    },
    {
      "bufferView": 3,
      "componentType": 5125,
      "count": 450000,
      "type": "SCALAR"
    }
  ],
  "asset": {
    "generator": "MeshSmith mesh conversion tool",
    "version": "2.0"
  },
  "bufferViews": [
    {
      "buffer": 0,
      "byteLength": 1104480,
      "target": 34962
    },
    {
      "buffer": 0,
      "byteLength": 1104480,
      "byteOffset": 1104480,
      "target": 34962
    },
    {
      "buffer": 0,
      "byteLength": 736320,
      "byteOffset": 2208960,
      "target": 34962
    },
    {
      "buffer": 0,
      "byteLength": 1800000,
      "byteOffset": 2945280,
      "target": 34963
    }
  ],
  "buffers": [
    {
      "byteLength": 4745280,
      "uri": "blue-crab-150k-4096-web.bin"
    }
  ],
  "images": [
    {
      "uri": "blue-crab-150k-4096-occlusion.jpg"
    },
    {
      "uri": "blue-crab-150k-4096-normals.jpg"
    }
  ],
  "materials": [
    {
      "name": "default",
      "normalTexture": {
        "index": 1
      },
      "occlusionTexture": {
        "index": 0
      },
      "pbrMetallicRoughness": {
        "metallicFactor": 0.100000001490116,
        "roughnessFactor": 0.800000011920929
      }
    }
  ],
  "meshes": [
    {
      "primitives": [
        {
          "attributes": {
            "NORMAL": 1,
            "POSITION": 0,
            "TEXCOORD_0": 2
          },
          "indices": 3,
          "material": 0,
          "mode": 4
        }
      ]
    }
  ],
  "nodes": [
    {
      "mesh": 0
    }
  ],
  "scene": 0,
  "scenes": [
    {
      "nodes": [
        0
      ]
    }
  ],
  "textures": [
    {
      "source": 0
    },
    {
      "source": 1
    }
  ]
}